<?xml version="1.0" encoding="utf-8"?>
<!-- Generator: Adobe Illustrator 27.5.0, SVG Export Plug-In . SVG Version: 6.00 Build 0)  -->
<svg version="1.1" id="business_woman" xmlns="http://www.w3.org/2000/svg" xmlns:xlink="http://www.w3.org/1999/xlink" x="0px"
	 y="0px" viewBox="0 0 450 450" style="enable-background:new 0 0 450 450;" xml:space="preserve">
<rect id="white_background" style="fill:#FFFFFF;" width="450" height="450"/>
<g>
	<g id="woman">
		<path style="fill:#CF8003;" d="M263.621,121.217c3.852,5.713,9.104,10.399,15.369,13.326c5.439,2.54,10.904,3.697,16.775,4.611
			c3.755,0.587,8.359,1.339,11.746,3.586c0.7-0.156,1.494-0.048,2.337,0.451c1.946,1.152,9.615,0.763,10.427-1.564
			c0.913-2.633,4.263-2.606,6.045-1.091c0.173-0.143,0.43-0.386,0.755-0.709c2.608-7.553,6.734-14.712,11.578-21.21
			c-0.247,1.574-1.15,6.3-1.397,7.875c3.448-4.835,8.532-7.448,10.923-17.136c0.262,2.697,0.625,5.362,0.903,7.019
			c9.246-10.915,18.777-29.221,11.309-43.306c3.11,1.923,4.97,3.984,6.379,5.283c0.49-13.37-3.975-27.23-17.455-30.426
			c3.1-0.564,5.833-2.42,10.078-0.905c-17.63-30.918-53.383-27.455-63.833-14.91c0.329-2.1,4.034-0.319,4.89-2.337
			c-8.697,4.011-17.041,9.154-27.094,8.11c2.016,0.856,4.115,1.188,5.523,2.484c-12.484,0.725-20.849,12.857-22.662,24.405
			c1.296-1.409,2.073-2.901,3.81-3.703c-12.181,21.024,0.932,36.68,1.094,37.251C263.167,105.55,259.359,114.9,263.621,121.217z"/>
		<g>
			<g>
				<path style="fill:#B96E17;" d="M302.106,24.965c27.993-10.443,46.219,5.51,52.439,13.689c3.333,4.382,4.751,8.171,5.814,10.608
					c-2.477-1.759-1.782,0-6.232-1.335c9.823,8.211,16.839,26.632,12.623,39.304c-0.77-3.76-0.905-6.969-2.219-8.257
					c2.209,14.329-4.172,29.319-18.058,43.733c0.655-4.158-0.342-3.581,0-5.749c-1.027,6.506-9.362,11.229-12.216,15.227
					c0.311-1.972,0.455-2.898,0.743-6.741c-1.722,4.056-4.949,8.81-7.476,12.742c1.55-3.941,1.514-3.967,1.514-12.255
					c4.461-5.151,8.403-10.165,10.15-12.508c-0.247,1.574,0.98,6.763,0.734,8.338c3.45-4.837,6.786-10.618,8.744-16.228
					c1.41,1.298,0.814,9.259,0.415,10.845c7.422-14.562,15.545-26.829,9.679-43.545c4.667,2.382,4.667,2.382,6.074,3.68
					c0.49-13.372-10.037-26.355-23.521-29.551c6.235-1.245,12.552-0.435,15.257-0.545c-4.646-11.586-29.762-32.461-61.012-14.302
					c0.33-2.102-12.698,0.479-18.957,5.892C276.602,28.287,294.422,27.833,302.106,24.965z"/>
				<path style="fill:#9C5124;" d="M275.455,38.653c1.292,0.437,2.509,0.87,3.424,1.715c-12.484,0.725-20.849,12.857-22.662,24.405
					c1.296-1.409,2.073-2.901,3.81-3.703c-5.889,11.886-3.659,25.215-2.009,38.084c-0.605-2.371-1.824-4.732-3.168-7.776
					c-3.92-12.037-3.115-9.261-3.627-14.14C248.983,55.863,261.271,46.783,275.455,38.653z"/>
				<path style="fill:#9C5124;" d="M276.602,38.003c-0.383,0.216-0.767,0.433-1.147,0.65c-0.69-0.234-1.399-0.47-2.1-0.77
					C274.457,38,275.537,38.027,276.602,38.003z"/>
				<path style="fill:#CF8003;" d="M255.428,81.788c0.15,5.215,1.962,13.454,3.737,20.024c0.161-1.536,0.535-3.062,1.156-4.554
					c0.796-1.919,1.605-3.833,2.419-5.747c-1.201-6.45-1.688-12.518-0.501-19.176c2.104-11.829,11.203-20.942,20.545-27.666
					c10.132-7.294,21.703-10.265,33.576-10.781c-3.596-2.158-8.062-6.432-16.053-7.915c-7.679-2.006-36.161-3.584-43.042,21.952
					c0.109-2.189,3.413-10.276,3.219-12.458c-18.182,9.775-13.389,52.898-4.054,62.134
					C260.088,74.433,255.428,81.788,255.428,81.788z"/>
				<path style="fill:#B96E17;" d="M302.982,23.111c-55.096-11.26-65.237,40.48-52.188,66.435
					c4.019,7.995,5.029,11.014,11.728,20.336c1.097,1.526-0.965-8.11-0.72-7.799c0.165-0.268-0.22,0.223,0,0
					c-2.084-6.568-8.904-17.02-9.108-23.993c-0.392,1.646,0.938,9.548,3.737,19.512c-13.583-21.092-6.697-42.934,0.78-56.28
					c-3.313,7.94-2.253,13.906-1.682,16.442c5.275-32.686,32.393-33.795,44.879-31.789
					C310.828,24.965,311.961,24.945,302.982,23.111z"/>
				
					<linearGradient id="SVGID_1_" gradientUnits="userSpaceOnUse" x1="477.7357" y1="225.5237" x2="505.8112" y2="225.5237" gradientTransform="matrix(0.9905 -0.1372 0.1372 0.9905 -242.9498 36.9817)">
					<stop  offset="0.0056" style="stop-color:#F4B38E"/>
					<stop  offset="1" style="stop-color:#ECB787"/>
				</linearGradient>
				<path style="fill:url(#SVGID_1_);" d="M268.695,214.514c0,0-0.997-1.472-2.271-3.877c-4.611-8.699-12.832-29.659,9.442-37.95
					C304.305,162.102,268.695,214.514,268.695,214.514z"/>
				<path style="fill:#FFD5B4;" d="M314.485,208.065c1.213-9.79,1.956-19.622,1.979-29.496c0.002-1.743,0.215-3.444,0.599-5.084
					c2.424-17.628,12.174-50.806,13.036-62.092c-6.603,7.781-37.026,17.228-34.672,27.511c1.209,5.271,0,27.688-8.685,39.294
					c-6.001,8.021-6.031,5.52-9.172,19.177c-6.433,10.62-11.144,16.51-19.567,24.726c-1.186,3.188-4.433,6.489-7.312,9.044
					c0.281,0.087,0.558,0.174,0.832,0.277c18.803,7.195,38.837,12.046,54.904,24.564
					C309.061,240.002,312.183,224.105,314.485,208.065z"/>
				
					<linearGradient id="SVGID_00000019650568240670842550000010818909860114787773_" gradientUnits="userSpaceOnUse" x1="529.4951" y1="158.2874" x2="562.3085" y2="158.2874" gradientTransform="matrix(1 0 0 1 -231.3564 0)">
					<stop  offset="0" style="stop-color:#FFDAAC"/>
					<stop  offset="0.3152" style="stop-color:#FFD9AB"/>
					<stop  offset="0.7697" style="stop-color:#FFC09C"/>
				</linearGradient>
				<path style="fill:url(#SVGID_00000019650568240670842550000010818909860114787773_);" d="M313.915,200.631
					c0,0,0.436,0.972,1.111,2.684c0.887-8.229,1.418-16.487,1.438-24.774c0.019-6.774,4.433-12.931,9.215-17.167
					c1.574-18.597,2.71-37.865,5.272-57.115l-9.758-0.831c0,0-10.09,84.645-23.056,109.718
					C308.323,208.059,311.352,208.332,313.915,200.631z"/>
				
					<linearGradient id="SVGID_00000071544900884860554970000007049857932271777432_" gradientUnits="userSpaceOnUse" x1="507.8654" y1="-70.6099" x2="517.0781" y2="-44.3892" gradientTransform="matrix(0.9056 0.4241 -0.4241 0.9056 -190.7772 -94.7736)">
					<stop  offset="0.0056" style="stop-color:#F6A996"/>
					<stop  offset="0.1682" style="stop-color:#FABBA2"/>
					<stop  offset="0.3752" style="stop-color:#FDCAAC"/>
					<stop  offset="0.6208" style="stop-color:#FED2B2"/>
					<stop  offset="1" style="stop-color:#FFD5B4"/>
				</linearGradient>
				<path style="fill:url(#SVGID_00000071544900884860554970000007049857932271777432_);" d="M279.465,48.104
					c-4.504,2.223-7.17,4.842-10.656,9.036c-13.882,16.689-8.691,36.337-8.691,36.337c-7.826,12.017,4.609,35.21,7.528,40.921
					c3.042,5.965-1.013,14.342,13.743,12.894c16.038-1.572,27.721-9.528,35.592-17.664c12.299-12.712,15.201-26.967,16.192-40.823
					C326.661,82.688,281.308,85.398,279.465,48.104z"/>
				<path style="fill:#B96E17;" d="M298.552,77.454c1.021,0.584,2.713,1.16,3.821,1.581c-0.118,0.088-3.09,0.257-5.906,1.296
					c-4.233,1.563-7.882,4.204-7.882,4.204C287.221,82.013,292.594,78.101,298.552,77.454z"/>
				
					<linearGradient id="SVGID_00000064317122962798699760000005559702442818946471_" gradientUnits="userSpaceOnUse" x1="320.3577" y1="84.2418" x2="304.4685" y2="136.5234">
					<stop  offset="0.5212" style="stop-color:#FFD5B4"/>
					<stop  offset="0.7751" style="stop-color:#FFD3B3"/>
					<stop  offset="0.8666" style="stop-color:#FDCCAE"/>
					<stop  offset="0.9318" style="stop-color:#FBC1A6"/>
					<stop  offset="0.9841" style="stop-color:#F7B09B"/>
					<stop  offset="1" style="stop-color:#F6A996"/>
				</linearGradient>
				<path style="fill:url(#SVGID_00000064317122962798699760000005559702442818946471_);" d="M344.512,87.627
					c-3.228-2.819-5.657-2.499-8.098-0.301c-3.347,3.672-9.326,14.682-13.268,22.566c-0.002-0.021-0.003-0.04-0.005-0.061
					c-10.896,32.955-39.394,36.608-50.513,36.394c1.254,0.184,4.294,1.136,8.654,0.888c17.995-1.007,29.198-4.707,38.686-17.178
					c4.078-5.359,6.999-12.248,8.683-18.593c0.285-0.025,2.999,1.097,3.219,1.341C335.742,116.958,351.346,93.596,344.512,87.627z"
					/>
				<path style="fill:#B96E17;" d="M270.855,83.275c0-3.87-7.892-7.403-11.332-6.229c-0.383,2.132-0.122,1.332-0.253,2.09
					c3.724-1.16,7.621,1.962,9.479,3.71C270.307,84.309,270.855,83.275,270.855,83.275z"/>
				<path style="fill:#3D1700;" d="M269.462,121.995c0,0,1.452,4.132,0.439,6.289c-1.01,2.16,9.453,2.712,9.453,2.712l3.896-3.104
					c0,0,6.02-4.944,5.521-4.886c-1.34,0.159-12.558-1.757-12.558-1.757l-4.608-0.39L269.462,121.995z"/>
				
					<radialGradient id="SVGID_00000094618092525155527850000008115169824290792345_" cx="501.2087" cy="107.6035" r="11.9312" gradientTransform="matrix(1.2271 0.0423 -0.0306 0.8874 -309.6331 -5.529)" gradientUnits="userSpaceOnUse">
					<stop  offset="0" style="stop-color:#FDB097"/>
					<stop  offset="1" style="stop-color:#FFD5B4"/>
				</radialGradient>
				<path style="fill:url(#SVGID_00000094618092525155527850000008115169824290792345_);" d="M316.749,111.666
					c-0.206,5.843-6.922,10.36-15.007,10.081c-8.089-0.278-14.482-5.246-14.276-11.093c0.201-5.844,6.92-10.36,15.005-10.081
					C310.558,100.851,316.95,105.816,316.749,111.666z"/>
				
					<radialGradient id="SVGID_00000166676354010542894160000003282825094064569772_" cx="464.0755" cy="102.7771" r="12.2577" gradientTransform="matrix(1.2271 0.0423 -0.0306 0.8874 -309.6331 -5.5295)" gradientUnits="userSpaceOnUse">
					<stop  offset="0" style="stop-color:#FDB097"/>
					<stop  offset="1" style="stop-color:#FFD5B4"/>
				</radialGradient>
				<path style="fill:url(#SVGID_00000166676354010542894160000003282825094064569772_);" d="M271.847,105.31
					c0.175-5.02-12.084-10.432-12.084-10.432c-4.461,2.724-0.936,15.994,0.17,21.304
					C267.398,115.944,271.656,110.821,271.847,105.31z"/>
				<g>
					<path style="fill:#FFFFFF;" d="M294.419,90.611c-1.142,1.121-3.895,2.458-5.158,5.77c0,0,2.008,0.699,5.745,1.239
						c3.738,0.539,8.382,1.938,12.043-0.176c1.654-0.954,4.247-3.424,4.306-6.35C309.932,90.489,301.19,83.941,294.419,90.611z"/>
				</g>
				
					<linearGradient id="SVGID_00000078749221038340179190000016753699801065284529_" gradientUnits="userSpaceOnUse" x1="289.2607" y1="90.74" x2="311.3545" y2="90.74">
					<stop  offset="0.2788" style="stop-color:#E7A2B3"/>
					<stop  offset="1" style="stop-color:#F2CBCA"/>
				</linearGradient>
				<path style="fill:url(#SVGID_00000078749221038340179190000016753699801065284529_);" d="M289.261,96.38
					c0,0,5.296-8.153,11.673-6.831c2.645,0.548,10.421,1.543,10.421,1.543s-0.289-2.568-3.021-4.281
					C303.564,83.827,292.414,83.484,289.261,96.38z"/>
				<path style="fill:#FFFFFF;" d="M272.606,95.279c-0.511-3.51-1.67-4.878-1.67-4.878c-1.575-3.217-7.046-4.567-11.486-0.373
					c-0.114,1.394,0.453,2.729,0.453,2.729c-0.008,0.009-0.441,0.393,2.585,2.195C267.14,97.722,272.606,95.279,272.606,95.279z"/>
				<path style="fill:#66826E;" d="M303.297,89.961c-0.792,0.048-3.693,0.209-4.487,0.219c-0.108,0.002-0.585-0.285-0.108,0.002
					c-0.658-0.399-1.405-0.385-2.074,0.342c-0.03,0.127,0.065,0.382-0.081,1.416c-0.416,2.909,1.609,5.288,4.547,5.763
					c4.429,0.713,7.638-2.529,7.158-6.396C308.184,90.734,306.568,89.758,303.297,89.961z"/>
				<path style="fill:#66826E;" d="M267.404,88.157c-1.347-0.567-2.811-0.705-4.222-1.081c-0.268,0.512-0.46,1.074-0.56,1.679
					c-0.465,2.959,0.586,7.044,5.213,6.922c1.377-0.035,3.061-0.222,4.63-3.011C271.324,89.608,269.571,89.071,267.404,88.157z"/>
				
					<linearGradient id="SVGID_00000144320282649850910330000009351426236770005945_" gradientUnits="userSpaceOnUse" x1="259.1406" y1="89.5916" x2="272.5482" y2="89.5916">
					<stop  offset="0" style="stop-color:#F2CBCA"/>
					<stop  offset="0.697" style="stop-color:#E7A2B3"/>
				</linearGradient>
				<path style="fill:url(#SVGID_00000144320282649850910330000009351426236770005945_);" d="M272.546,94.57
					c0,0-1.108-15.834-13.405-7.566c0.01,0.625,0.059,2.02,0.059,2.02C262.133,86.191,272.726,89.652,272.546,94.57z"/>
				<path d="M257.266,89.337c0.795,0.287,1.943,0.843,2.185,0.691c1.122-0.693,11.566-4.847,13.156,5.25
					C272.978,89.386,267.953,83.016,257.266,89.337z"/>
				<path style="fill:#D38A62;" d="M333.067,106.245c0,0,2.215-4.953,1.66-7.445c-0.555-2.493,0.256-6.887,3.33-8.654
					c3.076-1.77,6.974,0.282,4.155,8.518c0,0-2.012-4.805-3.406-2.17c-3.75,7.09,1.61,5.191-1.017,8.277
					C335.158,107.852,333.067,106.245,333.067,106.245z"/>
				<path d="M315.019,91.208c0,0-1.765,0.57-4.192-0.664c-0.655,0.059-0.298,0.305,0,0c4.351-0.496,5.878-3.008,5.878-3.008
					c-2.36,2.87-9.06-0.583-15.631,0.426c-11.042,1.699-11.813,8.419-11.813,8.419c1.609-2.288,2.172-2.909,3.515-3.813
					c1.167-0.78,3.515-2.444,9.938-2.401C305.967,90.188,312.996,93.266,315.019,91.208z"/>
				<g>
					
						<linearGradient id="SVGID_00000162324370762207635610000010418140043514995623_" gradientUnits="userSpaceOnUse" x1="518.8823" y1="0.9256" x2="521.498" y2="4.2432" gradientTransform="matrix(0.9056 0.4241 -0.4241 0.9056 -190.7772 -94.7736)">
						<stop  offset="0" style="stop-color:#EE6573"/>
						<stop  offset="1" style="stop-color:#DB596D"/>
					</linearGradient>
					<path style="fill:url(#SVGID_00000162324370762207635610000010418140043514995623_);" d="M281.236,126.603
						c-6.047,1.352-9.799-0.675-11.969,0.516c-2.504,1.375-0.497,4.61,2.17,5.319c2.394,0.638,9.296-0.198,12.084-2.27
						c4.021-2.992,5.739-7.38,5.739-7.38S282.353,126.351,281.236,126.603z"/>
				</g>
				<path style="fill:#FFFFFF;" d="M269.462,124.142c0,0,3.19,2.171,13.976-0.224l4.484-0.472l-15.575-3.021l-4.461,0.447
					C267.886,120.873,269.944,122.224,269.462,124.142z"/>
				<g>
					
						<linearGradient id="SVGID_00000013876554959393079790000009432989974102092961_" gradientUnits="userSpaceOnUse" x1="507.5762" y1="-5.438" x2="520.4156" y2="-0.3942" gradientTransform="matrix(0.9056 0.4241 -0.4241 0.9056 -190.7772 -94.7736)">
						<stop  offset="0" style="stop-color:#EE6573"/>
						<stop  offset="1" style="stop-color:#DB596D"/>
					</linearGradient>
					<path style="fill:url(#SVGID_00000013876554959393079790000009432989974102092961_);" d="M265.477,120.589
						c0,0-0.248,2.006,2.98,2.275c0,0,1.127-0.249,2.431-0.609c1.3-0.36,2.456,0.881,5.389,1.276
						c4.882,0.655,11.408,0.908,12.984-0.743c0,0-5.155,0.136-9.856-2.711c-3.338-2.022-4.544-3.124-8.218-0.77
						C267.224,115.862,265.613,118.684,265.477,120.589z"/>
				</g>
				<path style="fill:#B96E17;" d="M283.247,49.261c0,0,11.712,33.157,43.308,30.268C326.555,79.529,287.7,85.492,283.247,49.261z"
					/>
				<path style="fill:#B96E17;" d="M285.81,49.261c10.683,18.199,41.074,29.672,57.342,26.351
					C343.152,75.612,303.666,87.843,285.81,49.261z"/>
				<path style="fill:#F7931E;" d="M285.81,23.968c0,0-38.016,7.012-38.904,46.103C246.906,70.071,245.392,25.38,285.81,23.968z"/>
				<path style="fill:#F9A94B;" d="M268.379,42.988c0,0-15.044,18.209-10.307,41.206C258.072,84.194,244.672,57.763,268.379,42.988z
					"/>
				
					<linearGradient id="SVGID_00000119091449944278894200000002559952442631540920_" gradientUnits="userSpaceOnUse" x1="-7477.5737" y1="2215.3323" x2="-7477.938" y2="2215.4233" gradientTransform="matrix(1 0 0 1 -231.3564 0)">
					<stop  offset="0.0056" style="stop-color:#F4B38E"/>
					<stop  offset="1" style="stop-color:#FFDAAC"/>
				</linearGradient>
				<path style="fill:url(#SVGID_00000119091449944278894200000002559952442631540920_);" d="M313.227,216.335
					c0.439-2.762,0.861-5.529,1.259-8.297c0.174-1.409,0.339-2.821,0.492-4.23c-8.974,3.167-20.167,15.454-13.549,11.382
					C304.83,213.096,309.503,213.049,313.227,216.335z"/>
				
					<linearGradient id="SVGID_00000129918035546099003250000015012275761116075960_" gradientUnits="userSpaceOnUse" x1="514.2194" y1="191.5109" x2="555.8552" y2="191.5109" gradientTransform="matrix(1 0 0 1 -231.3564 0)">
					<stop  offset="0.0056" style="stop-color:#F4B38E"/>
					<stop  offset="1" style="stop-color:#FFDAAC"/>
				</linearGradient>
				<path style="fill:url(#SVGID_00000129918035546099003250000015012275761116075960_);" d="M316.442,180.572
					c-8.123,5.902-20.884,9.981-25.418,12.79c-2.092,1.296-7.854,6.959-8.145,8.773c-0.291,1.817,3.2-4.839,9.307-5.141
					c4.551-0.225,15.329-5.138,24.191-13.208C316.406,182.715,316.43,181.644,316.442,180.572z"/>
			</g>
			<path style="fill:#BFB59C;" d="M333.499,84.994c0,0.568,0,1.171,0,1.893C333.763,86.095,333.715,85.492,333.499,84.994z"/>
			<path style="fill:#B96E17;" d="M342.586,78.089c-2.13,2.133-4.459,5.257-5.394,6.524c0.683-0.926-0.094-3.891-0.961-5.945
				c0,2.414-0.522,4.822-0.902,6.927c0-2.864-0.697-5.071-1.848-6.222c0,1.578,0.018,4.382,0.018,5.62c0.216,0.498,0,0.568,0,0
				c-0.432-4.298-5.229-5.62-5.229-5.62c3.832,3.134,3.102,5.62,2.928,8.663c0-4.601-1.099-5.889-6.048-7.762
				c3.028,3.001,3.648,5.154,3.631,6.612c-3.478-5.139-8.071-4.991-13.804-3.665l6.815,1.772c4.763,1.725,6.247,7.824,6.464,10.286
				c0.439,5.018-0.866,13.019-2.753,17.97c3.278-4.396,4.88-12.037,6.001-16.217c0.864-3.229,2.663-7.112,7.015-11.092
				C339.67,83.346,340.715,82.6,342.586,78.089z"/>
			<path d="M264.785,87.899c-0.982,0.757-0.839,4.189,0.477,5.563c1.651,1.724,5.349,1.413,6.354-2.447
				c-1.298-1.41-4.183-3.854-6.473-3.492L264.785,87.899z"/>
			<path d="M298.319,90.392c-0.311,2.041-0.18,4.044,1.758,5.318c2.325,1.527,8.122,0.956,6.778-5.787
				c-1.375-0.215-8.327-0.821-8.491,0.188L298.319,90.392z"/>
			<path style="fill:#FFFFEC;" d="M271.268,85.22c7.858,9.567-0.49,19.678-2.056,22.611c-2.641,4.953-1.331,6.32,1.594,6.704
				C263.183,111.452,283.025,98.927,271.268,85.22L271.268,85.22z"/>
			<path style="fill:#FFCE62;" d="M337.139,113.869c-0.307,1.938-1.831,3.306-3.407,3.06c-1.576-0.248-2.608-2.021-2.305-3.959
				c0.307-1.937,1.829-3.307,3.407-3.059C336.41,110.159,337.441,111.93,337.139,113.869z"/>
			<path style="fill:#FFF2BD;" d="M336.195,112.527c-0.204,1.295-1.275,2.202-2.398,2.026c-1.119-0.177-1.863-1.37-1.661-2.665
				c0.204-1.294,1.278-2.2,2.4-2.024C335.657,110.04,336.4,111.233,336.195,112.527z"/>
			<path d="M292.629,97.248c8.64,1.839,15.358,1.13,18.254-4.047c-1.486,3.707-2.977,4.808-6.871,5.542
				C301.049,99.299,295.367,98.502,292.629,97.248L292.629,97.248z"/>
			<path d="M259.941,93.732c0.517,1.981,7.199,3.621,10.914,2.118c-6.152,1.033-10.071-1.8-10.846-2.552L259.941,93.732z"/>
			<path d="M338.127,450c28.679-67-2.64-110.042-21.817-112.807c-10.896-1.57-20.689,10.915-31.773,11.544
				c-12.333,0.7-20.792-15.884-34.147-15.207c-0.226,0.784-13.893,16.347-18.27,24.809C226.027,367.655,215,407,232,450H338.127z"/>
			<g>
				
					<linearGradient id="SVGID_00000039121780175741763530000015818245633392308124_" gradientUnits="userSpaceOnUse" x1="-41.6761" y1="196.6697" x2="-34.3219" y2="196.5888" gradientTransform="matrix(0.0809 -0.9968 0.9968 0.0809 -71.4635 181.5041)">
					<stop  offset="0.0056" style="stop-color:#F69E89"/>
					<stop  offset="0.9333" style="stop-color:#FFD5B4"/>
				</linearGradient>
				<path style="fill:url(#SVGID_00000039121780175741763530000015818245633392308124_);" d="M102.479,231.023
					c4.155,8.524,10.772,7.897,18.537,6.675c7.055-1.113,12.833,0.316,19.436,1.769c-4.1-4.484-10.827-7.578-16.931-7.694
					c-5.342-0.104-16.641,2.969-20.605-0.235L102.479,231.023z"/>
				
					<linearGradient id="SVGID_00000085953751151199479340000008333004366821189025_" gradientUnits="userSpaceOnUse" x1="79.8972" y1="240.8832" x2="211.451" y2="240.8832" gradientTransform="matrix(0.8472 -0.5313 0.5313 0.8472 -103.7975 91.83)">
					<stop  offset="0.4424" style="stop-color:#FFD5B4"/>
					<stop  offset="0.9944" style="stop-color:#F69E89"/>
				</linearGradient>
				<path style="fill:url(#SVGID_00000085953751151199479340000008333004366821189025_);" d="M172.405,248.126
					c-9.158-2.414-15.035-5.325-21.021-7.313c0.006-0.031-10.534-1.509-10.534-1.509s-7.079-4.091-12.497-3.297
					c-13.533,1.979-21.271,2.391-20.907-4.645c-0.12-1.462-0.317-3.133-0.623-5.054c-2.218-13.961-5.106-13.066-5.106-13.066
					l-0.049,19.566l-0.002,1.29c-0.4-0.309-0.774-0.63-1.129-0.953c-2.254-2.066-3.599-4.36-3.984-5.377
					c-0.169-0.423-0.473-1.507-0.892-2.959c-0.12-3.234-1.614-12.835-4.049-17.896c-2.593-5.407-3.89-3.754-3.89-3.754
					s0.186,0.776,0.36,2.57c-0.371-0.512-0.749-0.958-1.13-1.313c-4.717-4.325-2.838,0.313-1.947,2.222
					c0.557,1.192,1.647,7.322,3.009,13.699c-0.069,5.863,1.312,10.316,2.488,13.043c-2.706-2.432-5.221-4.764-7.261-6.464
					c-5.438-4.579-14.137-9.136-11.1-4.958c1.754,2.407,9.354,9.409,16.334,15.854c0.44,0.402,0.877,0.808,1.311,1.208
					c5.445,3.854,9.761,13.596,21.53,12.173c4.109-0.502,20.393-1.842,28.062,0.209c8.91,1.882,20.556,4.549,33.079,7.183
					C171.605,255.265,171.535,251.726,172.405,248.126z"/>
				<path style="fill:#D46781;" d="M101.758,219.3c3.338,0.995,1.643-4.935,0.483-6.079c-1.424-1.406-1.17,0.952-1.133,2.163
					c0.042,1.393,0.238,2.484,0.784,3.862L101.758,219.3z"/>
				<path style="fill:#D46781;" d="M70.872,220.764c0.358,0.761,1.912,1.943,2.681,2.802c0.763,0.85,2.078,1.708,1.987-0.157
					c-0.074-1.533-3.554-3.938-5.042-3.246c0.092,0.371,0.269,0.76,0.536,1L70.872,220.764z"/>
				<path style="fill:#D46781;" d="M88.614,208.637c1.847,0.997,1.343-2.132,1.097-2.958c-0.35-1.171-1.017-2.905-2.313-3.203
					c0.626,1.912,0.65,4.21,1.082,6.215L88.614,208.637z"/>
				<path style="fill:#D46781;" d="M86.342,208.003c1.342-0.79-1.178-5.984-2.926-5.776c0.249,0.962,1.858,6.972,2.791,5.829
					L86.342,208.003z"/>
			</g>
			<path style="fill:#C8E5FF;" d="M285.81,174.577v-12c-27.679-1.121-31.723,7.783-34.91,19.393
				c-5.053,18.409-30.048,93.51-40.061,112.362c3.677,1.303,7.419,2.228,11.16,2.668c15,3,19-15,24-25
				c10.066-19.358,11.747-45.905,23.597-63.404c1.157-4.945,2.081-8.588,2.798-10.313C276.039,189.52,282.1,182.854,285.81,174.577z
				"/>
			<path style="fill:#BADEFF;" d="M222,297c-3.742-0.44-7.483-1.365-11.16-2.668c-0.066,0.124-0.134,0.256-0.199,0.375
				c3.808,3.438,16.855,17.123,20.484,11.304c21.043-15.214,32.685-72.688,38.472-97.415C257.747,226.095,256.066,252.642,246,272
				C241,282,237,300,222,297z"/>
			<g>
				<g>
					<path style="fill:#C8E5FF;" d="M177.348,271.373c3.958-5.183,8.724-10.974,3.481-17.394l-32.606-18.036
						c-0.57,1.156-4.731,8.254-7.338,14.556C153.233,257.996,167.968,262.871,177,271
						C177.114,271.124,177.232,271.248,177.348,271.373z"/>
					<path style="fill:#BADEFF;" d="M148.167,235.911l0.056,0.031C148.324,235.738,148.319,235.708,148.167,235.911z"/>
					<path style="fill:#BADEFF;" d="M169.811,275.98c0,0,1.748-3.083,5.645-2.023c0.572-0.844,1.221-1.705,1.892-2.584
						c-0.115-0.125-0.234-0.249-0.348-0.373c-9.032-8.129-23.767-13.004-36.115-20.502c-1.072,2.592-1.882,5.048-2.066,6.896
						C144.627,260.396,164.964,274.233,169.811,275.98z"/>
				</g>
				<path style="fill:#BADEFF;" d="M228.16,309.385c6.827-3.998,9.963-8.597,6.673-16.307c-3.159,3.23-7.227,5.043-12.833,3.922
					c-17-2-34-14-45-26c-3.477-3.129-7.809-5.772-12.516-8.27c-0.042,1.003-0.207,2.101-0.739,3.327
					C161.753,278.592,219.627,314.381,228.16,309.385z"/>
				<path style="fill:#C8E5FF;" d="M222,297c5.605,1.121,9.674-0.691,12.833-3.922c-0.913-2.142-2.32-4.521-4.283-7.196
					c-10.733-14.629-59.402-31.801-59.402-31.801c-7.949,2.702-6.517,5.074-6.664,8.649c4.707,2.498,9.039,5.141,12.516,8.27
					C188,283,205,295,222,297z"/>
			</g>
			<path style="fill:#605248;" d="M333.48,156.776c0.124,1.947,0.229,3.887,0.261,5.801c0.705-1.714,1.371-3.446,2.001-5.196
				C334.971,157.185,334.214,156.984,333.48,156.776z"/>
			<path style="fill:#605248;" d="M317.093,180.655c-1.849,1.477,1.208,5.535,2.492,8.023c2.236-3.301,4.343-6.674,6.311-10.116
				C322.76,178.773,319.085,178.946,317.093,180.655z"/>
			<path style="fill:#BADEFF;" d="M317.064,173.485c-0.097,1.024-43.497,45.802-45.215,49.168
				c10.906-45.697,5.432-26.591,6.622-27.124c1.1-3.526,1.678-7.007,0.896-11.434c3.17,0,2.315-3.523,3.388-7.139
				c1.251-2.666-4.756-1.585-6.867-2.642c1.13-1.886,2.195-3.907,3.24-5.966c-0.395,0.125-0.792,0.249-1.191,0.364
				c-1.391,0.489-2.609,1.028-3.693,1.61c-13.661,23.271-10.565,52.874-7.459,78.749c3.45-3.449,12.116-3.435,14.417-6.886
				c16.581-13.905,38.679-42.717,44.695-63.624C318.509,181.438,324.276,171.537,317.064,173.485z"/>
			<path style="fill:#333333;" d="M335.742,157.381c-0.63,1.75-1.296,3.481-2.001,5.196c0.088,5.13-0.353,10.062-2.387,14.379
				c-0.487,1.219-2.776,1.424-5.458,1.605c-1.969,3.442-4.075,6.815-6.311,10.116c0,0-46.521,38.474-52.801,60.394
				c-3.105-25.876-6.202-55.478,7.459-78.749c-9.318,4.999-8.395,13.353-15.376,23.744c-5.587,8.316-16.109,17.148-21.033,25.216
				c-3.296,5.392-5.715,19.822,6.079,26.513l0.612,3.785c0,15.336,0.615,23.471,0.762,33.137
				c0.423,27.589-0.615,41.507-17.613,75.219c6.516,4.463,13.568,7.011,20.463,7.697c0,0,3.325-14.449,8.389-25.283
				c3.027,7.288,4.299,16.926,10.138,28.124c17.75,0,28.88-1.075,36.782-4.253c19.482-7.833,34.273-18.522,32.297-20.825
				c-9.188-9.887-13.411-15.922-18.99-25.69c-3.942-6.902-5.824-15.872-3.567-24.832c5.153-20.468,13.978-40.174,19.556-52.864
				c-1.172-1.816-3.843,1.012-3.843,1.012c-6.151-27.241-1.549-58.499,13.782-82.001
				C340.297,158.466,337.949,157.942,335.742,157.381z"/>
			<path style="fill:#BADEFF;" d="M346.77,216.62c7.672-11.217,19.719-30.435,19.969-43.71
				c-3.314-8.657-13.994-11.549-24.059-13.889c-15.331,23.501-31.798,63.632-19.131,80.116c0,0,3.005,2.842,8.347,2.842
				c1.297-2.952,1.236-2.837,2.386-5.61C339.94,224.564,339.519,227.219,346.77,216.62z"/>
			<path style="fill:#E3F2FF;" d="M278.261,180.572c0.025,2.034-3.797,33.429-6.412,42.081
				c5.723-25.278,23.939-54.304,23.609-71.651c-1.27,0-1.27,0-8.576,5.7c-10.582,10.255-24.693,21.983-25.824,23.87
				C261.058,183.689,278.201,178.778,278.261,180.572z"/>
			<path style="fill:#E3F2FF;" d="M317.257,180.655c3.698-3.17,19.855,20.674,20.908,18.034c2.52-14.333,3.503-31.667-0.974-43.735
				c-2.837-0.808-6.239-4.605-9.973-12.921c-2.697,15.401-13.15,32.237-25.562,42.71c-2.323,1.962-15.847,17.708-29.809,37.912
				C292.186,196.995,314.617,182.767,317.257,180.655z"/>
			<path style="fill:#FFFFFF;" d="M271.081,92.311c-0.101,0.64-0.701,1.077-1.342,0.977c-0.637-0.101-1.074-0.7-0.974-1.339
				c0.102-0.64,0.7-1.078,1.336-0.977C270.743,91.073,271.181,91.673,271.081,92.311z"/>
			<path style="fill:#FFFFFF;" d="M305.996,93.187c-0.101,0.639-0.701,1.076-1.341,0.975c-0.639-0.101-1.077-0.702-0.976-1.341
				c0.102-0.639,0.702-1.075,1.341-0.975C305.659,91.946,306.094,92.547,305.996,93.187z"/>
			<g>
				
					<linearGradient id="SVGID_00000010294331590814505540000005185883513615731594_" gradientUnits="userSpaceOnUse" x1="31.6448" y1="353.7276" x2="-17.7859" y2="357.0053" gradientTransform="matrix(-1 0 0 1 340.667 0)">
					<stop  offset="0.4424" style="stop-color:#FFD5B4"/>
					<stop  offset="0.9944" style="stop-color:#F69E89"/>
				</linearGradient>
				<path style="fill:url(#SVGID_00000010294331590814505540000005185883513615731594_);" d="M298.547,356.911
					c3.663-2.424,13.706-14.159,15.914-16.764c0.014-0.025,0.03-0.052,0.047-0.08c-0.701-2.006-9.819-0.841-14.203-2.179
					c-4.102-1.792-1.913-3.499-1.913-3.499s11.319,0.722,16.997-0.479c4.037-0.851,6.718,0.903,7.931,1.987
					c2.273,2.609,10.221,11.55,17.359,17.498c5.226,5.232,8.712,6.663,10.789,6.894c0.015,0.025,0.029,0.058,0.042,0.085
					c2.099-0.76,4.474-2.254,7.092-4.882c0.287-0.29,0.6-0.622,0.928-0.973c2.679,3.267,5.543,6.439,8.569,9.53
					c-7.191,6.142-13.64,10.462-18.37,11.4c-2.675,0.999-6.444,1.834-9.774,0.464c-0.037-0.004-0.065-0.001-0.101-0.009
					c-4.946-0.96-8.281-10.131-9.755-14.348c-1.474-4.212-2.562-6.503-5.155-7.874c-0.052-0.027-0.103-0.045-0.152-0.069
					c-0.132-0.048-0.267-0.095-0.403-0.145c-4.137-1.493-7.034,7.261-12.134,8.685c-5.102,1.425-3.033,1.008,2.435-6.395
					c0.755-1.024,1.431-1.989,2.055-2.908c-4.821,3.419-11.215,7.272-13.237,5.316C301.014,359.671,294.828,359.374,298.547,356.911
					z"/>
				<path style="fill:#C8E5FF;" d="M391.058,324.551c-3.149-2.974-7.81-3.851-12.446-0.272
					c-17.58,16.54-22.731,25.161-32.139,33.657c7.854,3.326,11.17,7.24,13.803,14.561
					C368.133,358.29,391.44,341.349,391.058,324.551z"/>
				<path style="fill:#BADEFF;" d="M391.058,324.551c0.383,16.798-22.925,33.739-30.782,47.947c0.458,1.275,0.898,2.639,1.335,4.135
					c1.092-1.255,8.403-9.105,9.457-10.266c8.813-9.697,11.45-15.793,23.013-27.956C396.06,333.296,394.422,327.727,391.058,324.551
					z"/>
				<path style="fill:#C8E5FF;" d="M395,333c10-22,23-41,31-63c0.689-1.675,1.268-3.373,1.787-5.083
					c-0.039-0.094-0.077-0.186-0.117-0.28c-0.779-1.843-1.709-3.898-2.774-6.277c-2.314-5.171-22.456-35.587-41.218-66.634
					c-22.573-37.356-29.74-35.633-38.35-11.837c-6.128,16.939-4.718,24.849,5.424,34.626c9.756,9.408,47.725,60.021,47.725,60.021
					c-11.934,20.196-23.015,40.127-24.314,53.974c4.539,5.273,6.616,8.357,9.583,12.278C388.879,339.758,393.54,336.65,395,333z"/>
				<path style="fill:#BADEFF;" d="M427.787,264.917c-0.52,1.71-1.098,3.408-1.787,5.083c-8,22-21,41-31,63
					c-1.46,3.65-6.121,6.758-11.254,7.786c0.272,0.36,0.551,0.726,0.841,1.103c0.838,1.088,1.758,2.252,2.827,3.554
					c11.272-2.756,14.881-9.346,22.244-23.879C430.386,280.653,433.781,279.217,427.787,264.917z"/>
			</g>
			<path style="fill:#766356;" d="M273.174,114.17c-0.325-0.666,2.817-1.648,3.046-0.185
				C276.369,114.956,273.428,114.69,273.174,114.17L273.174,114.17z"/>
		</g>
		<path style="fill:#D46781;" d="M312.81,359.805c-0.007,1.29-2.572,3.983-3.956,3.674c-0.093-1.305,2.578-3.966,3.783-4.225
			C312.788,359.438,312.77,359.597,312.81,359.805L312.81,359.805z"/>
		<path style="fill:#D46781;" d="M307.27,355.542c-0.043,1.505-3.108,2.846-4.39,2.249c0.191-0.849,3.695-3.984,4.246-2.675
			L307.27,355.542z"/>
		<path style="fill:#D46781;" d="M301.301,355.542c0.98,2.051-3.497,3.365-4.815,3.389c0.257-1.236,3.359-3.958,4.647-3.791
			C301.173,355.301,301.24,355.397,301.301,355.542L301.301,355.542z"/>
		<path style="fill:#D46781;" d="M302.722,334.51c0.741,1.428-2.05,1.668-2.985,1.567c-1.253-0.137-2.789-0.816-3.533-1.818
			c1.426-0.685,4.983-0.123,6.376,0.394L302.722,334.51z"/>
	</g>
	<path style="fill:#B96E17;" d="M325.896,87.423c1.305,2.565,1.782,6.178,1.461,8.834c-0.206,1.712-0.173,1.723-0.493,3.427
		c-0.578,3.088-0.98,8.051-2.689,10.74c2.38-3.651,3.156-6.507,3.702-7.964c0.575-1.536-0.134-0.525,0.316-2.074
		c0.887-3.056,3.827-8.794,2.759-11.809L325.896,87.423z"/>
	<g>
		<path style="fill:#F99933;" d="M297.982,50.818c6.854,5.779,12.846,8.846,18.378,8.462c-8.062-3.45-16.381-9.977-18.171-12.26
			c12.487-5.714,37.553-4.024,58.314,16.337c-7.189-15.432-39.078-27.787-56.196-27.018c15.2-12.308,44.335-3.524,51.979,6.648
			C344.839,31.252,322.3,18.639,295.56,32.11c-2.931-4.773-7.747-4.329-13.311-2.948c-7.632,1.895-16.61,8.929-21.158,14.732
			c2.74-2.888,12.265-6.011,18.04-7.105c-3.409,2.537-8.275,4.603-14.424,14.823c-1.788,2.971-4.103,9.693-5.566,17.292
			c5.777-11.923,12.708-21.883,21.09-25.593c-0.271,5.088,0.285,8.766,2.294,14.684c-0.082-4.432,0.003-8.856,0.342-13.168
			c1.066,4.152,3.319,8.868,5.694,12.414c-0.6-4.511-3.757-13.595-3.757-13.427c0.203-1.771-0.194-3.531-0.298-5.206
			c4.055,18.633,16.315,23.089,16.315,23.089c5.579,3.586,15.647,10.198,22.593,9.479C312.022,68.239,304.603,60.117,297.982,50.818
			z"/>
		<path style="fill:#FCE0A5;" d="M352.286,42.988C352.424,43.135,354.804,41.279,352.286,42.988L352.286,42.988z"/>
	</g>
	<g>
		<g>
			<path d="M262.087,331.503c-0.286,1.705-1.306,2.953-2.28,2.79c-0.974-0.164-1.531-1.676-1.245-3.38
				c0.286-1.705,1.306-2.954,2.279-2.79C261.815,328.287,262.372,329.799,262.087,331.503z"/>
		</g>
		<g>
			<path d="M263.011,319.487c-0.286,1.705-1.305,2.953-2.279,2.79c-0.975-0.164-1.531-1.676-1.246-3.38
				c0.286-1.705,1.306-2.954,2.28-2.79C262.739,316.272,263.296,317.783,263.011,319.487z"/>
		</g>
		<g>
			<path d="M263.935,307.472c-0.286,1.705-1.306,2.953-2.28,2.79c-0.974-0.164-1.531-1.676-1.246-3.381
				c0.286-1.705,1.307-2.953,2.28-2.789C263.664,304.256,264.221,305.768,263.935,307.472z"/>
		</g>
		<g>
			<path d="M264.859,295.456c-0.286,1.705-1.305,2.953-2.28,2.79c-0.974-0.164-1.53-1.677-1.245-3.381
				c0.286-1.705,1.306-2.953,2.28-2.79C264.588,292.24,265.145,293.752,264.859,295.456z"/>
		</g>
		<g>
			<path d="M265.784,283.44c-0.286,1.705-1.306,2.953-2.28,2.79c-0.974-0.165-1.531-1.677-1.246-3.381
				c0.286-1.705,1.307-2.953,2.28-2.79C265.512,280.225,266.069,281.736,265.784,283.44z"/>
		</g>
		<g>
			<path d="M266.708,271.425c-0.286,1.705-1.305,2.953-2.28,2.79c-0.974-0.165-1.53-1.677-1.245-3.381
				c0.286-1.705,1.306-2.953,2.28-2.79C266.436,268.208,266.993,269.721,266.708,271.425z"/>
		</g>
		<g>
			<path d="M267.633,259.408c-0.286,1.705-1.306,2.954-2.28,2.79c-0.974-0.164-1.531-1.676-1.246-3.38
				c0.286-1.705,1.307-2.953,2.28-2.79C267.36,256.192,267.918,257.704,267.633,259.408z"/>
		</g>
	</g>
	<g>
		<g>
			<path style="fill:#595850;" d="M261.162,331.503c-0.286,1.705-1.305,2.953-2.279,2.79c-0.975-0.164-1.531-1.676-1.246-3.38
				c0.286-1.705,1.307-2.954,2.28-2.79C260.891,328.287,261.447,329.799,261.162,331.503z"/>
		</g>
		<g>
			<path style="fill:#595850;" d="M262.087,319.487c-0.286,1.705-1.306,2.953-2.28,2.79c-0.974-0.164-1.531-1.676-1.245-3.38
				c0.286-1.705,1.306-2.954,2.279-2.79C261.815,316.272,262.372,317.783,262.087,319.487z"/>
		</g>
		<g>
			<path style="fill:#595850;" d="M263.011,307.472c-0.286,1.705-1.305,2.953-2.279,2.79c-0.975-0.164-1.531-1.676-1.246-3.381
				c0.286-1.705,1.306-2.953,2.28-2.789C262.739,304.256,263.296,305.768,263.011,307.472z"/>
		</g>
		<g>
			<path style="fill:#595850;" d="M263.935,295.456c-0.286,1.705-1.306,2.953-2.28,2.79c-0.974-0.164-1.531-1.677-1.246-3.381
				c0.286-1.705,1.307-2.953,2.28-2.79C263.664,292.24,264.221,293.752,263.935,295.456z"/>
		</g>
		<g>
			<path style="fill:#595850;" d="M264.859,283.44c-0.286,1.705-1.305,2.953-2.28,2.79c-0.974-0.165-1.53-1.677-1.245-3.381
				c0.286-1.705,1.306-2.953,2.28-2.79C264.588,280.225,265.145,281.736,264.859,283.44z"/>
		</g>
		<g>
			<path style="fill:#595850;" d="M265.784,271.425c-0.286,1.705-1.306,2.953-2.28,2.79c-0.974-0.165-1.531-1.677-1.246-3.381
				c0.286-1.705,1.307-2.953,2.28-2.79C265.512,268.208,266.069,269.721,265.784,271.425z"/>
		</g>
		<g>
			<path style="fill:#595850;" d="M266.708,259.408c-0.286,1.705-1.305,2.954-2.28,2.79c-0.974-0.164-1.53-1.676-1.245-3.38
				c0.286-1.705,1.306-2.953,2.28-2.79C266.436,256.192,266.993,257.704,266.708,259.408z"/>
		</g>
	</g>
</g>
</svg>
